<?xml version="1.0" encoding="utf-8"?>
<!-- Generator: Adobe Illustrator 23.0.3, SVG Export Plug-In . SVG Version: 6.00 Build 0)  -->
<svg version="1.1" xmlns="http://www.w3.org/2000/svg" xmlns:xlink="http://www.w3.org/1999/xlink" x="0px" y="0px"
	 viewBox="0 0 21 14" style="enable-background:new 0 0 21 14;" xml:space="preserve">
<style type="text/css">
	.st0{fill:#231815;}
	.st1{fill:none;stroke:#000000;stroke-width:1.0006;stroke-linecap:round;stroke-linejoin:round;stroke-miterlimit:10;}
	.st2{fill:none;stroke:#000000;stroke-linecap:round;stroke-linejoin:round;stroke-miterlimit:10;}
	.st3{fill:#2C2C2C;}
	.st4{fill:#FFFFFF;}
	.st5{fill:none;}
</style>
<g id="レイヤー_1" fill="#fff">
	<path fill="#fff" d="M1,6h16.6l-4.3-4.3c-0.4-0.4-0.4-1,0-1.4c0.4-0.4,1-0.4,1.4,0l5.9,6C20.9,6.5,21,6.7,21,7c0,0.3-0.1,0.5-0.3,0.7l-5.9,6
		c-0.2,0.2-0.5,0.3-0.7,0.3c-0.3,0-0.5-0.1-0.7-0.3c-0.4-0.4-0.4-1,0-1.4L17.6,8H1C0.4,8,0,7.6,0,7S0.4,6,1,6z"/>
</g>
<g id="_x31_">
</g>
<g id="編集モード">
</g>
<g id="layer">
</g>
</svg>
