<?xml version="1.0" encoding="utf-8"?>
<!-- Generator: Adobe Illustrator 23.0.3, SVG Export Plug-In . SVG Version: 6.00 Build 0)  -->
<svg version="1.1" id="layer_1_" xmlns="http://www.w3.org/2000/svg" xmlns:xlink="http://www.w3.org/1999/xlink" x="0px" y="0px"
	 viewBox="0 0 48 48" style="enable-background:new 0 0 48 48;" xml:space="preserve">
<style type="text/css">
	.st0{fill:#FFFFFF;}
	.st1{fill:#231815;}
	.st2{fill:none;stroke:#000000;stroke-width:1.0006;stroke-linecap:round;stroke-linejoin:round;stroke-miterlimit:10;}
	.st3{fill:none;stroke:#000000;stroke-linecap:round;stroke-linejoin:round;stroke-miterlimit:10;}
	.st4{fill:#2C2C2C;}
	.st5{fill:none;}
</style>
<ellipse class="st0" cx="24" cy="24" rx="24" ry="23.8"/>
<path d="M6.9,22.7h31.5L29.7,14c-0.5-0.5-0.5-1.2,0-1.6c0.5-0.5,1.2-0.5,1.6,0L42,23c0.2,0.2,0.3,0.5,0.3,0.8c0,0.3-0.1,0.6-0.3,0.8
	L31.3,35.2c-0.2,0.2-0.5,0.3-0.8,0.3c-0.3,0-0.6-0.1-0.8-0.3c-0.5-0.5-0.4-1.2,0-1.6l8.6-8.6H6.9c-0.6,0-1.2-0.5-1.2-1.2
	C5.7,23.2,6.2,22.7,6.9,22.7z"/>
</svg>
