<?xml version="1.0" encoding="utf-8"?>
<!-- Generator: Adobe Illustrator 23.0.3, SVG Export Plug-In . SVG Version: 6.00 Build 0)  -->
<svg version="1.1" xmlns="http://www.w3.org/2000/svg" xmlns:xlink="http://www.w3.org/1999/xlink" x="0px" y="0px"
	 viewBox="0 0 48 48" style="enable-background:new 0 0 48 48;" xml:space="preserve">
<style type="text/css">
	.st0{fill:#231815;}
	.st1{fill:none;stroke:#000000;stroke-width:1.0006;stroke-linecap:round;stroke-linejoin:round;stroke-miterlimit:10;}
	.st2{fill:none;stroke:#000000;stroke-linecap:round;stroke-linejoin:round;stroke-miterlimit:10;}
	.st3{fill:#2C2C2C;}
	.st4{fill:#FFFFFF;}
	.st5{fill:none;}
</style>
<g id="レイヤー_1">
	<g>
		<path d="M16.9,23.3h13.5l-3.7-3.7c-0.2-0.2-0.2-0.5,0-0.7c0.2-0.2,0.5-0.2,0.7,0l4.6,4.5c0.1,0.1,0.1,0.2,0.1,0.4
			c0,0.1,0,0.3-0.1,0.4l-4.6,4.5c-0.1,0.1-0.2,0.1-0.4,0.1c-0.1,0-0.3,0-0.4-0.1c-0.2-0.2-0.2-0.5,0-0.7l3.7-3.7H16.9
			c-0.3,0-0.5-0.2-0.5-0.5S16.6,23.3,16.9,23.3z" fill="#fff"/>
		<path d="M0,23.8c0,13.1,10.8,23.8,24,23.8s24-10.7,24-23.8S37.2,0,24,0S0,10.7,0,23.8z M1,23.8C1,11.2,11.3,1,24,1
			s23,10.2,23,22.8S36.7,46.6,24,46.6S1,36.4,1,23.8z" fill="#fff"/>
	</g>
</g>
<g id="_x31_">
</g>
<g id="編集モード">
</g>
<g id="layer">
</g>
</svg>
