<svg xmlns="http://www.w3.org/2000/svg" width="346" height="55" viewBox="-0.138 -0.739 346 55"><path d="M19.513 38H11.09v15.121H0V2.716h20.594c12.025 0 19.297 7.129 19.297 17.426v.144C39.891 31.951 30.818 38 19.513 38m9.145-17.642c0-4.969-3.456-7.633-9-7.633H11.09v15.41h8.784c5.544 0 8.784-3.312 8.784-7.633v-.144zm16.334-4.464h9.722v6.913h.143c1.873-4.681 6.913-7.921 11.881-7.921a7.63 7.63 0 0 1 2.233.36v9.504c-.936-.215-2.449-.359-3.672-.359-7.489 0-10.081 5.4-10.081 11.953v16.778H44.992V15.894zm45.318-1.009c11.736 0 19.298 7.777 19.298 19.658 0 11.811-7.562 19.586-19.298 19.586-11.665 0-19.226-7.775-19.226-19.586 0-11.881 7.561-19.658 19.226-19.658m0 31.539c6.984 0 9.072-5.977 9.072-11.881 0-5.976-2.088-11.953-9.072-11.953-6.912 0-9.001 5.977-9.001 11.953 0 5.904 2.089 11.881 9.001 11.881m41.723 6.697h-17.159V2.717h17.159c15.84 0 26.786 10.873 26.786 25.059v.144c0 14.184-10.946 25.201-26.786 25.201m15.193-25.202c0-8.929-6.121-15.193-15.193-15.193h-6.069v30.388h6.069c9.072 0 15.193-6.121 15.193-15.051v-.144zm17.499-12.025h9.722v6.913h.144c1.872-4.681 6.913-7.921 11.881-7.921.72 0 1.584.144 2.232.36v9.504c-.937-.215-2.448-.359-3.673-.359-7.488 0-10.079 5.4-10.079 11.953v16.778h-10.227V15.894zM193.31 5.238c0-1.523.51-2.777 1.529-3.761C195.859.492 197.248 0 199.005 0c1.734 0 3.117.492 4.148 1.477 1.031.984 1.547 2.238 1.547 3.761 0 1.547-.521 2.813-1.563 3.797-1.043.985-2.42 1.477-4.132 1.477-1.711 0-3.088-.492-4.131-1.477-1.042-.984-1.564-2.25-1.564-3.797m10.793 47.883h-10.195v-38.04h10.195v38.04zm27.68 0h-11.377l-12.745-37.227h10.729l7.848 25.418h.145l7.848-25.418h10.154zm23.168-16.13c.287 6.481 3.456 9.433 9.145 9.433 4.104 0 7.416-2.519 8.064-4.824h9.001c-2.88 8.785-9.001 12.529-17.426 12.529-11.737 0-19.009-8.064-19.009-19.586 0-11.161 7.704-19.657 19.009-19.657 12.673 0 18.794 10.656 18.073 22.105h-26.857zm16.632-6.479c-.936-5.186-3.168-7.922-8.137-7.922-6.48 0-8.353 5.041-8.496 7.922h16.633zm15.579-14.618h9.721v6.913h.145c1.872-4.681 6.912-7.921 11.881-7.921a7.63 7.63 0 0 1 2.233.36v9.504c-.938-.215-2.45-.359-3.674-.359-7.488 0-10.08 5.4-10.08 11.953v16.778h-10.226V15.894zm48.493 26.715c0-1.242-.615-2.221-1.846-2.936s-3.205-1.354-5.924-1.916c-9.048-1.898-13.57-5.742-13.57-11.531 0-3.375 1.4-6.193 4.201-8.455 2.8-2.262 6.463-3.393 10.986-3.393 4.828 0 8.688 1.137 11.584 3.41 2.895 2.274 4.342 5.227 4.342 8.86h-10.16c0-1.454-.469-2.655-1.406-3.604-.937-.949-2.403-1.424-4.394-1.424-1.712 0-3.037.387-3.974 1.16-.938.774-1.406 1.758-1.406 2.954 0 1.125.532 2.033 1.6 2.724 1.066.691 2.865 1.289 5.396 1.793s4.663 1.072 6.398 1.705c5.366 1.969 8.051 5.379 8.051 10.23 0 3.469-1.489 6.276-4.465 8.42-2.976 2.145-6.82 3.217-11.531 3.217-3.188 0-6.018-.568-8.49-1.705-2.474-1.137-4.412-2.695-5.818-4.676-1.406-1.979-2.109-4.119-2.109-6.416h9.633c.093 1.805.761 3.188 2.004 4.148 1.242.961 2.905 1.441 4.992 1.441 1.945 0 3.415-.369 4.412-1.107.996-.737 1.494-1.703 1.494-2.899"/></svg>